<svg id="Layer_1" data-name="Layer 1" xmlns="http://www.w3.org/2000/svg" viewBox="0 0 146 30"><defs><style>.cls-1{fill:#0069c3;}</style></defs><path d="M12.4,10.8a9.05,9.05,0,0,1,3.79,3.59,10.73,10.73,0,0,1,1.34,5.46,10.46,10.46,0,0,1-1.34,5.41,8.77,8.77,0,0,1-3.79,3.52A12.75,12.75,0,0,1,6.68,30H0V9.55H6.68A12.52,12.52,0,0,1,12.4,10.8Zm-.21,14.52a7.48,7.48,0,0,0,1.91-5.47,7.85,7.85,0,0,0-1.91-5.57,7.28,7.28,0,0,0-5.51-2H3.35v15H6.68a7.36,7.36,0,0,0,5.5-1.93Z"/><path d="M35.59,22.88H23.21a4.46,4.46,0,0,0,4.62,4.29,3.91,3.91,0,0,0,3.82-2.26h3.62a7.35,7.35,0,0,1-2.66,3.66A7.84,7.84,0,0,1,27.83,30,8.28,8.28,0,0,1,23.67,29,7.37,7.37,0,0,1,20.78,26a8.85,8.85,0,0,1-1-4.4,9.05,9.05,0,0,1,1-4.39,7.14,7.14,0,0,1,2.86-2.93,8.52,8.52,0,0,1,4.23-1,8.19,8.19,0,0,1,4.08,1,7,7,0,0,1,2.79,2.82,8.39,8.39,0,0,1,1,4.16A10,10,0,0,1,35.59,22.88Zm-3.38-2.71a3.84,3.84,0,0,0-1.32-3,4.78,4.78,0,0,0-3.22-1.12,4.35,4.35,0,0,0-3,1.11,4.63,4.63,0,0,0-1.47,3Z"/><path class="cls-1" d="M45.27,27,53.42,0h2.74L47.24,30h-4L37.1,13.79h3.58Z"/><path d="M61.64,14A7.17,7.17,0,0,1,65,13.26a7.42,7.42,0,0,1,3.88,1,7.29,7.29,0,0,1,2.74,2.93,9.19,9.19,0,0,1,1,4.34,9.37,9.37,0,0,1-1,4.37,7.4,7.4,0,0,1-2.75,3,7.68,7.68,0,0,1-7.21.34,6.45,6.45,0,0,1-2.3-1.88v2.35H56V8h3.36v8A6.31,6.31,0,0,1,61.64,14Zm6.83,4.65a4.81,4.81,0,0,0-1.83-1.86,4.89,4.89,0,0,0-2.42-.64A4.82,4.82,0,0,0,60,18.69a6,6,0,0,0-.69,2.91A6.08,6.08,0,0,0,60,24.53a4.8,4.8,0,0,0,6.47,2l.18-.11a4.89,4.89,0,0,0,1.83-1.92,6.15,6.15,0,0,0,.69-2.94A5.71,5.71,0,0,0,68.47,18.66Z"/><path d="M90.57,13.55V29.76H87.22V27.85a5.47,5.47,0,0,1-2.08,1.58,6.67,6.67,0,0,1-2.72.57A7.14,7.14,0,0,1,79,29.2a5.73,5.73,0,0,1-2.38-2.35,7.64,7.64,0,0,1-.87-3.77V13.55h3.32v9a4.66,4.66,0,0,0,1.09,3.33,3.87,3.87,0,0,0,3,1.17,3.92,3.92,0,0,0,3-1.17,4.66,4.66,0,0,0,1.1-3.33v-9Z"/><path d="M106.24,14.32a5.65,5.65,0,0,1,2.37,2.35,7.75,7.75,0,0,1,.86,3.77V30h-3.33V20.94a4.68,4.68,0,0,0-1.09-3.34,3.84,3.84,0,0,0-3-1.16,3.92,3.92,0,0,0-3,1.16A4.69,4.69,0,0,0,98,20.94V30H94.64V13.79H98v1.85a5.67,5.67,0,0,1,2.1-1.56,6.91,6.91,0,0,1,2.73-.56A7.26,7.26,0,0,1,106.24,14.32Z"/><path d="M113.63,17.23a7.21,7.21,0,0,1,2.81-2.93,8.18,8.18,0,0,1,4.11-1,8.07,8.07,0,0,1,4.87,1.4,6.85,6.85,0,0,1,2.61,4h-3.62A3.9,3.9,0,0,0,123,16.77a4.24,4.24,0,0,0-2.45-.67,4.07,4.07,0,0,0-3.28,1.45,6.18,6.18,0,0,0-1.22,4.07,6.24,6.24,0,0,0,1.22,4.09,4.06,4.06,0,0,0,3.28,1.47,3.72,3.72,0,0,0,3.86-2.57H128a7.23,7.23,0,0,1-2.65,3.93A7.83,7.83,0,0,1,120.55,30,8,8,0,0,1,116.44,29,7.23,7.23,0,0,1,113.63,26a9.21,9.21,0,0,1-1-4.4A9.13,9.13,0,0,1,113.63,17.23Z"/><path d="M142.87,14.32a5.64,5.64,0,0,1,2.29,2.35,7.86,7.86,0,0,1,.84,3.77V30h-3.32V20.94a4.73,4.73,0,0,0-1.09-3.34,3.86,3.86,0,0,0-3-1.16,3.93,3.93,0,0,0-3,1.16,4.6,4.6,0,0,0-1.1,3.34V30h-3.36V8.23h3.36v7.44a5.61,5.61,0,0,1,2.17-1.59,7.23,7.23,0,0,1,2.87-.56A6.91,6.91,0,0,1,142.87,14.32Z"/></svg>